<svg width="48" height="48" viewBox="0 0 48 48" fill="none" xmlns="http://www.w3.org/2000/svg">
  <!-- Background circle -->
  <circle cx="24" cy="24" r="22" fill="white" stroke="#e5e7eb" stroke-width="2"/>
  
  <!-- Sun with rays -->
  <circle cx="24" cy="16" r="6" fill="#fbbf24"/>
  <path d="M24 6v4M24 38v4M42 24h-4M6 24H2M35.6 8.4l-2.8 2.8M11.2 32.8l-2.8 2.8M35.6 39.6l-2.8-2.8M11.2 15.2l-2.8-2.8" stroke="#fbbf24" stroke-width="2" stroke-linecap="round"/>
  
  <!-- Cloud -->
  <path d="M12 28c-2.2 0-4 1.8-4 4s1.8 4 4 4h24c2.2 0 4-1.8 4-4s-1.8-4-4-4c0-2.2-1.8-4-4-4s-4 1.8-4 4H12z" fill="#60a5fa"/>
  
  <!-- App name -->
  <text x="24" y="44" text-anchor="middle" font-family="Arial, sans-serif" font-size="8" font-weight="bold" fill="#374151">WEATHER</text>
</svg>
